<?xml version="1.0" encoding="UTF-8" standalone="no"?>
<svg
   xmlns:dc="http://purl.org/dc/elements/1.1/"
   xmlns:cc="http://creativecommons.org/ns#"
   xmlns:rdf="http://www.w3.org/1999/02/22-rdf-syntax-ns#"
   xmlns:svg="http://www.w3.org/2000/svg"
   xmlns="http://www.w3.org/2000/svg"
   xmlns:sodipodi="http://sodipodi.sourceforge.net/DTD/sodipodi-0.dtd"
   xmlns:inkscape="http://www.inkscape.org/namespaces/inkscape"
   inkscape:export-ydpi="100"
   inkscape:export-xdpi="100"
   inkscape:export-filename="/Users/andrew/dev/analysis/neo/doc/source/images/base_schematic.png"
   version="1.0"
   inkscape:output_extension="org.inkscape.output.svg.inkscape"
   sodipodi:docname="base_schematic_2.svg"
   inkscape:version="0.92.5 (2060ec1f9f, 2020-04-08)"
   sodipodi:version="0.32"
   id="svg2"
   height="18.416033cm"
   width="18.517309cm">
  <sodipodi:namedview
     inkscape:document-rotation="0"
     inkscape:window-maximized="0"
     inkscape:guide-bbox="true"
     showguides="true"
     inkscape:window-y="38"
     inkscape:window-x="59"
     inkscape:window-height="1005"
     inkscape:window-width="1363"
     showgrid="false"
     inkscape:current-layer="layer1"
     inkscape:document-units="px"
     inkscape:cy="364.08753"
     inkscape:cx="386.7767"
     inkscape:zoom="1"
     inkscape:pageshadow="2"
     inkscape:pageopacity="0.0"
     borderopacity="1.0"
     bordercolor="#666666"
     pagecolor="#ffffff"
     id="base"
     fit-margin-top="1"
     fit-margin-left="1"
     fit-margin-right="1"
     fit-margin-bottom="1"
     units="cm" />
  <defs
     id="defs4">
    <marker
       style="overflow:visible"
       id="Arrow1Lend"
       refX="0"
       refY="0"
       orient="auto"
       inkscape:stockid="Arrow1Lend">
      <path
         transform="matrix(-0.8,0,0,-0.8,-10,0)"
         style="fill-rule:evenodd;stroke:#000000;stroke-width:1.00000003pt;marker-start:none"
         d="M 0,0 5,-5 -12.5,0 5,5 Z"
         id="path9606"
         inkscape:connector-curvature="0" />
    </marker>
    <defs
       id="defs4517">
      <path
         d="M 0,3 V -3"
         id="md0b6aff34ceb4dcf39a042d98ad215e8"
         inkscape:connector-curvature="0" />
    </defs>
    <marker
       style="overflow:visible"
       id="Arrow1LendZ"
       refX="0"
       refY="0"
       orient="auto"
       inkscape:stockid="Arrow1LendZ">
      <path
         transform="matrix(-0.8,0,0,-0.8,-10,0)"
         style="fill:#ff6600;fill-rule:evenodd;stroke:#ff6600;stroke-width:1.00000003pt;marker-start:none"
         d="M 0,0 5,-5 -12.5,0 5,5 Z"
         id="path10404"
         inkscape:connector-curvature="0" />
    </marker>
    <marker
       style="overflow:visible"
       id="Arrow1LendZ7"
       refX="0"
       refY="0"
       orient="auto"
       inkscape:stockid="Arrow1LendZ7">
      <path
         transform="matrix(-0.8,0,0,-0.8,-10,0)"
         style="fill:#aad400;fill-rule:evenodd;stroke:#aad400;stroke-width:1.00000003pt;marker-start:none"
         d="M 0,0 5,-5 -12.5,0 5,5 Z"
         id="path11032"
         inkscape:connector-curvature="0" />
    </marker>
    <clipPath
       id="p50431ccdcb28178602d99d9270004dde-70">
      <rect
         x="72"
         y="43.200001"
         width="446.39999"
         height="345.60001"
         id="rect4669" />
    </clipPath>
    <clipPath
       id="p50431ccdcb28178602d99d9270004dde-1">
      <rect
         x="72"
         y="43.200001"
         width="446.39999"
         height="345.60001"
         id="rect4809" />
    </clipPath>
    <clipPath
       id="p50431ccdcb28178602d99d9270004dde-4">
      <rect
         x="72"
         y="43.200001"
         width="446.39999"
         height="345.60001"
         id="rect4949" />
    </clipPath>
    <clipPath
       id="p50431ccdcb28178602d99d9270004dde-48">
      <rect
         x="72"
         y="43.200001"
         width="446.39999"
         height="345.60001"
         id="rect5260" />
    </clipPath>
    <marker
       style="overflow:visible"
       id="Arrow1Lend-1"
       refX="0"
       refY="0"
       orient="auto"
       inkscape:stockid="Arrow1Lend">
      <path
         transform="matrix(-0.8,0,0,-0.8,-10,0)"
         style="fill-rule:evenodd;stroke:#000000;stroke-width:1.00000003pt;marker-start:none"
         d="M 0,0 5,-5 -12.5,0 5,5 Z"
         id="path9606-6"
         inkscape:connector-curvature="0" />
    </marker>
    <marker
       style="overflow:visible"
       id="Arrow1LendrB"
       refX="0"
       refY="0"
       orient="auto"
       inkscape:stockid="Arrow1LendrB">
      <path
         transform="matrix(-0.8,0,0,-0.8,-10,0)"
         style="fill:#000080;fill-rule:evenodd;stroke:#000080;stroke-width:1.00000003pt;marker-start:none"
         d="M 0,0 5,-5 -12.5,0 5,5 Z"
         id="path14695"
         inkscape:connector-curvature="0" />
    </marker>
    <marker
       style="overflow:visible"
       id="Arrow1Lend-1C"
       refX="0"
       refY="0"
       orient="auto"
       inkscape:stockid="Arrow1Lend-1C">
      <path
         transform="matrix(-0.8,0,0,-0.8,-10,0)"
         style="fill:#008000;fill-rule:evenodd;stroke:#008000;stroke-width:1.00000003pt;marker-start:none"
         d="M 0,0 5,-5 -12.5,0 5,5 Z"
         id="path18311"
         inkscape:connector-curvature="0" />
    </marker>
    <marker
       style="overflow:visible"
       id="Arrow1Lend-1E"
       refX="0"
       refY="0"
       orient="auto"
       inkscape:stockid="Arrow1Lend-1E">
      <path
         transform="matrix(-0.8,0,0,-0.8,-10,0)"
         style="fill:#008000;fill-rule:evenodd;stroke:#008000;stroke-width:1.00000003pt;marker-start:none"
         d="M 0,0 5,-5 -12.5,0 5,5 Z"
         id="path19320"
         inkscape:connector-curvature="0" />
    </marker>
    <marker
       style="overflow:visible"
       id="Arrow1Lend-1o"
       refX="0"
       refY="0"
       orient="auto"
       inkscape:stockid="Arrow1Lend-1o">
      <path
         transform="matrix(-0.8,0,0,-0.8,-10,0)"
         style="fill:#008000;fill-rule:evenodd;stroke:#008000;stroke-width:1.00000003pt;marker-start:none"
         d="M 0,0 5,-5 -12.5,0 5,5 Z"
         id="path20333"
         inkscape:connector-curvature="0" />
    </marker>
    <marker
       style="overflow:visible"
       id="Arrow1Lend-1e"
       refX="0"
       refY="0"
       orient="auto"
       inkscape:stockid="Arrow1Lend-1e">
      <path
         transform="matrix(-0.8,0,0,-0.8,-10,0)"
         style="fill:#008000;fill-rule:evenodd;stroke:#008000;stroke-width:1.00000003pt;marker-start:none"
         d="M 0,0 5,-5 -12.5,0 5,5 Z"
         id="path21350"
         inkscape:connector-curvature="0" />
    </marker>
    <marker
       style="overflow:visible"
       id="Arrow1Lend-1Cb"
       refX="0"
       refY="0"
       orient="auto"
       inkscape:stockid="Arrow1Lend-1Cb">
      <path
         transform="matrix(-0.8,0,0,-0.8,-10,0)"
         style="fill:#aa0000;fill-rule:evenodd;stroke:#aa0000;stroke-width:1.00000003pt;marker-start:none"
         d="M 0,0 5,-5 -12.5,0 5,5 Z"
         id="path22371"
         inkscape:connector-curvature="0" />
    </marker>
    <marker
       style="overflow:visible"
       id="Arrow1Lend-1v"
       refX="0"
       refY="0"
       orient="auto"
       inkscape:stockid="Arrow1Lend-1v">
      <path
         transform="matrix(-0.8,0,0,-0.8,-10,0)"
         style="fill:#aa0000;fill-rule:evenodd;stroke:#aa0000;stroke-width:1.00000003pt;marker-start:none"
         d="M 0,0 5,-5 -12.5,0 5,5 Z"
         id="path23396"
         inkscape:connector-curvature="0" />
    </marker>
    <marker
       style="overflow:visible"
       id="Arrow1Lend-1n"
       refX="0"
       refY="0"
       orient="auto"
       inkscape:stockid="Arrow1Lend-1n">
      <path
         transform="matrix(-0.8,0,0,-0.8,-10,0)"
         style="fill:#aa0000;fill-rule:evenodd;stroke:#aa0000;stroke-width:1.00000003pt;marker-start:none"
         d="M 0,0 5,-5 -12.5,0 5,5 Z"
         id="path24425"
         inkscape:connector-curvature="0" />
    </marker>
    <marker
       style="overflow:visible"
       id="Arrow1Lend-1CbS"
       refX="0"
       refY="0"
       orient="auto"
       inkscape:stockid="Arrow1Lend-1CbS">
      <path
         transform="matrix(-0.8,0,0,-0.8,-10,0)"
         style="fill:#4d0089;fill-rule:evenodd;stroke:#4d0089;stroke-width:1.00000003pt;marker-start:none"
         d="M 0,0 5,-5 -12.5,0 5,5 Z"
         id="path25489"
         inkscape:connector-curvature="0" />
    </marker>
    <marker
       inkscape:stockid="Arrow1LendZ"
       orient="auto"
       refY="0"
       refX="0"
       id="Arrow1LendZ-2"
       style="overflow:visible">
      <path
         id="path10404-9"
         d="M 0,0 5,-5 -12.5,0 5,5 Z"
         style="fill:#ff6600;fill-rule:evenodd;stroke:#ff6600;stroke-width:1.00000003pt;marker-start:none"
         transform="matrix(-0.8,0,0,-0.8,-10,0)"
         inkscape:connector-curvature="0" />
    </marker>
    <marker
       style="overflow:visible"
       id="Arrow1Lend-1o-3"
       refX="0"
       refY="0"
       orient="auto"
       inkscape:stockid="Arrow1Lend-1o">
      <path
         inkscape:connector-curvature="0"
         transform="matrix(-0.8,0,0,-0.8,-10,0)"
         style="fill:#008000;fill-rule:evenodd;stroke:#008000;stroke-width:1.00000003pt;marker-start:none"
         d="M 0,0 5,-5 -12.5,0 5,5 Z"
         id="path20333-6" />
    </marker>
    <marker
       style="overflow:visible"
       id="Arrow1Lend-1E-7"
       refX="0"
       refY="0"
       orient="auto"
       inkscape:stockid="Arrow1Lend-1E">
      <path
         inkscape:connector-curvature="0"
         transform="matrix(-0.8,0,0,-0.8,-10,0)"
         style="fill:#008000;fill-rule:evenodd;stroke:#008000;stroke-width:1.00000003pt;marker-start:none"
         d="M 0,0 5,-5 -12.5,0 5,5 Z"
         id="path19320-5" />
    </marker>
    <marker
       style="overflow:visible"
       id="Arrow1Lend-1C-6"
       refX="0"
       refY="0"
       orient="auto"
       inkscape:stockid="Arrow1Lend-1C">
      <path
         inkscape:connector-curvature="0"
         transform="matrix(-0.8,0,0,-0.8,-10,0)"
         style="fill:#008000;fill-rule:evenodd;stroke:#008000;stroke-width:1.00000003pt;marker-start:none"
         d="M 0,0 5,-5 -12.5,0 5,5 Z"
         id="path18311-2" />
    </marker>
    <marker
       inkscape:stockid="Arrow1Lend-1Cj"
       orient="auto"
       refY="0"
       refX="0"
       id="Arrow1Lend-1Cj"
       style="overflow:visible">
      <path
         inkscape:connector-curvature="0"
         id="path3478"
         d="M 0,0 5,-5 -12.5,0 5,5 Z"
         style="stroke-opacity:1.0;fill-rule:evenodd;marker-start:none;fill-opacity:1.0;stroke:rgb(0,0,0);stroke-width:1.00000003pt;fill:rgb(255,255,255)"
         transform="matrix(-0.8,0,0,-0.8,-10,0)" />
    </marker>
    <marker
       style="overflow:visible"
       id="Arrow1Lend-1CjM"
       refX="0"
       refY="0"
       orient="auto"
       inkscape:stockid="Arrow1Lend-1CjM">
      <path
         transform="matrix(-0.8,0,0,-0.8,-10,0)"
         style="stroke-opacity:1.0;fill-opacity:1.0;marker-start:none;fill-rule:evenodd;stroke:rgb(0,0,0);stroke-width:1.00000003pt;fill:rgb(255,255,255)"
         d="M 0,0 5,-5 -12.5,0 5,5 Z"
         id="path4100"
         inkscape:connector-curvature="0" />
    </marker>
    <marker
       inkscape:stockid="Arrow1Lend-1CjMr"
       orient="auto"
       refY="0"
       refX="0"
       id="Arrow1Lend-1CjMr"
       style="overflow:visible">
      <path
         inkscape:connector-curvature="0"
         id="path4732"
         d="M 0,0 5,-5 -12.5,0 5,5 Z"
         style="stroke-opacity:1.0;fill-rule:evenodd;marker-start:none;fill-opacity:1.0;stroke:rgb(0,0,0);stroke-width:1.00000003pt;fill:rgb(170,0,0)"
         transform="matrix(-0.8,0,0,-0.8,-10,0)" />
    </marker>
    <marker
       style="overflow:visible"
       id="Arrow1Lend-1CjMr8"
       refX="0"
       refY="0"
       orient="auto"
       inkscape:stockid="Arrow1Lend-1CjMr8">
      <path
         transform="matrix(-0.8,0,0,-0.8,-10,0)"
         style="stroke-opacity:1.0;fill-opacity:1.0;marker-start:none;fill-rule:evenodd;stroke:rgb(0,0,0);stroke-width:1.00000003pt;fill:rgb(0,0,0)"
         d="M 0,0 5,-5 -12.5,0 5,5 Z"
         id="path5374"
         inkscape:connector-curvature="0" />
    </marker>
    <marker
       inkscape:stockid="Arrow1Lend-1CjMr8G"
       orient="auto"
       refY="0"
       refX="0"
       id="Arrow1Lend-1CjMr8G"
       style="overflow:visible">
      <path
         inkscape:connector-curvature="0"
         id="path6026"
         d="M 0,0 5,-5 -12.5,0 5,5 Z"
         style="stroke-opacity:1.0;fill-rule:evenodd;marker-start:none;fill-opacity:1.0;stroke:rgb(0,0,0);stroke-width:1.00000003pt;fill:rgb(0,0,0)"
         transform="matrix(-0.8,0,0,-0.8,-10,0)" />
    </marker>
    <marker
       style="overflow:visible"
       id="Arrow1Lend-1CjMr8GJ"
       refX="0"
       refY="0"
       orient="auto"
       inkscape:stockid="Arrow1Lend-1CjMr8GJ">
      <path
         transform="matrix(-0.8,0,0,-0.8,-10,0)"
         style="stroke-opacity:1;fill-opacity:1;marker-start:none;fill-rule:evenodd;stroke:#ffcc00;stroke-width:1.00000003pt;fill:#ffcc00"
         d="M 0,0 5,-5 -12.5,0 5,5 Z"
         id="path6688"
         inkscape:connector-curvature="0" />
    </marker>
  </defs>
  <metadata
     id="metadata7">
    <rdf:RDF>
      <cc:Work
         rdf:about="">
        <dc:format>image/svg+xml</dc:format>
        <dc:type
           rdf:resource="http://purl.org/dc/dcmitype/StillImage" />
        <dc:title></dc:title>
      </cc:Work>
    </rdf:RDF>
  </metadata>
  <g
     transform="translate(-47.84069,332.77165)"
     id="layer1"
     inkscape:groupmode="layer"
     inkscape:label="Calque 1">
    <path
       id="path3777"
       d="m 315.40914,-7.42991 0.1084,-0.80304 0.32519,2.22105 0.3252,0.059 0.32525,-4.14649 0.3252,1.12668 0.3252,-4.64994 0.32518,-4.79019 0.32519,0.39306 0.32521,-3.63061 0.32518,2.63032 0.32527,3.59593 0.32518,-4.52879 0.32519,-5.90531 0.3252,3.71026 0.3252,-0.55681 0.32518,4.15228 0.3252,2.9421 0.32526,-2.13687 0.32519,2.77456 0.32519,1.5958 0.3252,-1.26099 0.3252,2.01487 0.32519,0.0969 0.32519,-0.2118 0.32522,2.28273 0.32519,-1.80239 0.32523,2.72713 0.32519,-0.46532 0.32521,-3.97751 0.32519,-6.17497 0.32521,2.2279 0.3252,-0.88945 0.3252,4.46095 0.32519,-0.13611 0.3252,-1.25389 0.32518,-1.89669 0.32523,-2.89375 0.32523,-1.65321 0.32519,1.55881 0.32519,3.47422 0.3252,-4.34076 0.3252,3.8962 0.32518,-1.7687 0.32519,-1.66846 0.32527,-1.67317 0.32518,3.0339 0.3252,-2.78429 0.32519,0.97668 0.3252,-2.88711 0.32519,-1.5726 0.32526,0.0183 0.32519,-3.4577 0.32519,3.65643 0.32521,0.0536 0.32518,2.83441 0.32519,-1.4847 0.3252,2.46189 0.32525,0.31571 0.32519,1.08885 0.32521,2.3259 0.32519,3.07428 0.3252,5.27638 0.32518,-3.30246 0.32519,1.87541 0.32528,-4.84079 0.32517,1.04968 0.3252,0.9849 0.3252,2.04736 0.32519,4.02051 0.32521,-1.29862 0.32516,4.17887 0.32528,-3.17142 0.32518,1.75457 0.3252,-2.03503 0.32521,1.35998 0.32516,-3.06673 0.32521,-0.4222 0.32525,-2.29384 0.32519,-5.36485 0.32521,-1.51327 0.3252,-3.26848 0.32518,0.49724 0.32519,2.84448 0.3252,4.0283 0.32526,4.82496 0.32519,1.49139 0.3252,-1.40716 0.3252,2.32112 0.32517,1.50979 0.3252,1.1717 0.32519,-0.0367 0.32522,-0.83612 0.32525,-1.18449 0.32518,-3.44755 0.32519,-1.12804 0.3252,1.6604 0.3252,-0.99183 0.32521,-0.67452 0.32519,2.76051 0.32523,-0.68018 0.32519,-1.29792 0.32518,3.21431 0.3252,1.70791 0.3252,-1.07644 0.32526,1.08954 0.32518,-0.55226 0.32519,6.54956 0.3252,-2.89589 0.3252,-3.13233 0.32519,-0.20053 0.3252,3.15297 0.32524,-2.29456 0.32519,-2.62453 0.3252,2.41743 0.3252,-2.49081 0.3252,-0.88596 0.32519,-4.35812 0.32524,2.31345 0.3252,4.38291 0.3252,1.23759 0.32519,-2.12924 0.32519,-5.08624 0.3252,0.25911 0.32519,4.29385 0.32525,0.74043 0.32521,-0.65881 0.32518,1.13778 0.3252,-2.07033 0.32519,0.0771 0.3252,1.71085 0.32519,0.21721 0.32524,2.45574 0.3252,-4.23058 0.32519,1.28129 0.32521,-0.62201 0.3252,1.97433 0.32518,-1.37882 0.32518,2.06647 0.32526,0.95085 0.32526,2.06024 0.32514,1.64924 0.32523,0.81008 0.32514,3.07406 0.32521,-4.86721 0.32523,0.22117 0.32515,-3.35502 0.32527,1.85039 0.32514,-0.0966 0.32522,-2.52235 0.32526,-5.34036 0.32515,-6.89286 0.32524,-0.1245 0.32521,-2.3917 0.32513,1.37528 0.32523,0.89086 0.32515,0.21453 0.32525,-0.23388 0.32527,-0.5592 0.32517,-1.5177 0.32519,2.54276 0.32521,1.97556 0.32513,-0.0562 0.32526,1.58201 0.32514,-3.65315 0.32529,0.26446 0.3252,1.95896 0.3252,0.39083 0.32519,1.55195 0.32519,-1.23004 0.3252,-2.81524 0.3252,0.61731 0.32523,-2.76316 0.32521,1.10478 0.32519,2.02796 0.32519,-2.48766 0.3252,-0.4651 0.3252,-1.10538 0.32518,0.46583 0.32526,3.76403 0.32518,1.98106 0.32521,-1.20259 0.32519,1.53558 0.32521,-4.09219 0.32518,-0.89048 0.32524,0.53468 0.32521,1.39349 0.3252,0.38452 0.32518,0.82117 0.3252,1.50407 0.32521,2.6666 0.32517,3.11005 0.32525,2.64921 0.32521,4.81721 0.32519,-1.77168 0.32519,0.11565 0.32519,0.56145 0.32519,-1.58165 0.32519,-2.00846 0.3253,-1.87541 0.32515,-3.24203 0.3252,-2.14605 0.3252,1.30713 0.32518,-2.91304 0.32521,3.60683 0.32529,2.52142 0.32515,0.20072 0.32525,-1.06118 0.32513,-3.00532 0.32519,-2.13387 0.32519,0.93921 0.32522,-0.2579 0.32524,-0.58823 0.32513,-0.97628 0.32526,-0.75658 0.32523,-3.98409 0.32516,0.0277 0.32526,4.1415 0.32512,0.93317 0.3252,-0.20294 0.32524,-4.23619 0.32513,1.14187 0.32527,-3.14953 0.32525,1.3265 0.32513,-0.53656 0.32525,5.45302 0.3252,-2.08986 0.32518,-1.87042 0.32521,3.6421 0.32514,0.56058 0.32524,5.24143 0.32513,4.36786 0.32532,4.10682 0.3252,2.0757 0.3252,-1.35521 0.32518,-3.60106 0.32518,3.35809 0.32516,0.0739 0.32525,-1.03316 0.32525,2.09025 0.32519,-1.64425 0.32519,-2.09087 0.3252,-4.23056 0.32519,-3.21823 0.32521,0.98128 0.32518,-1.71276 0.32524,0.15372 0.3252,-0.62622 0.3252,-2.75971 0.32521,-0.20323 0.32517,-0.56787 0.32519,-2.56317 0.32526,-5.88537 0.3252,0.15237 0.3252,-6.08813 0.32517,-0.15366 0.3252,-5.43876 0.3252,0.89606 0.3252,-0.11316 0.32526,-2.22507 0.32519,1.05666 0.32517,-0.40226 0.3252,10.1764 0.3252,1.1945 0.3252,6.96212 0.32521,2.43639 0.32521,4.46025 0.32521,-0.0354 0.3252,2.68434 0.32519,0.17742 0.32519,-4.63825 0.32519,3.50743 0.32532,-2.1047 0.32513,0.57125 0.32524,2.07614 0.32515,-1.10601 0.32521,-1.16312 0.3252,0.76704 0.32518,-2.2284 0.32525,-1.03674 0.32525,5.6637 0.32513,-3.62875 0.32526,1.93818 0.32514,2.92977 0.32519,-2.43108 0.3252,5.05145 0.3252,-3.2482 0.32523,1.70363 0.32526,2.93388 0.32514,1.39575 0.32523,-1.44124 0.32515,2.12443 0.32526,-0.61943 0.32518,-4.15443 0.32514,1.57821 0.32527,-6.90381 0.32513,3.66987 0.32526,-0.57802 0.32524,-3.55495 0.32518,2.15299 0.32522,0.40656 0.32518,-0.85095 0.32516,-3.06963 0.32522,-0.0182 0.32515,0.372 0.32525,5.0103 0.32525,-2.8174 0.3252,-0.46314 0.32518,-0.11756 0.32519,-4.21859 0.3252,0.11886 0.32521,1.35514 0.32512,2.9789 0.32531,4.73788 0.32519,-3.19144 0.3252,-2.40281 0.32519,1.43798 0.32519,-1.72955 0.3252,2.5517 0.32526,-0.1825 0.32519,1.11657 0.32518,1.84527 0.32519,-2.51718 0.32522,-4.33668 0.32518,-0.46435 0.3252,-3.95809 0.32524,4.48586 0.32519,-1.28141 0.32521,-1.1225 0.32519,0.82346 0.3252,-0.85861 0.32519,-3.88265 0.32521,-1.7149 0.32522,1.23553 0.3252,1.69245 0.32522,3.61506 0.32518,0.17706 0.32518,-0.31408 0.3252,-0.79059 0.3253,3.97513 0.32515,-2.35719 0.3252,5.01284 0.32518,2.70501 0.3252,1.19153 0.32521,-0.42646 0.32518,1.14426 0.32526,-3.69726 0.32522,-3.61826 0.32515,-0.14611 0.32521,-4.42068 0.3252,0.25388 0.32519,-4.29288 0.32519,2.56388 0.32519,-4.73009 0.32524,-4.10179 0.32525,0.19206 0.32516,2.73553 0.32522,5.37367 0.32516,0.43155 0.32519,2.44002 0.32524,-0.0524 0.32515,1.25186 0.32526,-1.35798 0.32523,2.00329 0.32514,6.67156 0.32526,-3.22192 0.3252,0.22373 0.32514,1.33857 0.32523,0.41572 0.32514,-0.47256 0.32525,0.81573 0.32516,-0.70026 0.32524,-0.68443 0.32524,0.44138 0.3252,-1.08182 0.32519,1.20887 0.3252,-2.44043 0.32514,-2.14225 0.32526,-5.62716 0.32513,1.42477 0.32529,-1.47451 0.32521,1.98429 0.32519,-1.96408 0.32521,-1.21159 0.32518,1.05444 0.32519,1.23311 0.32527,-3.51441 0.32517,1.75711 0.3252,9.84481 0.32519,-2.33816 0.3252,1.24105 0.3252,-0.70321 0.32519,-0.25232 0.32525,3.51058 0.32519,-2.87227 0.32519,-1.55859 0.3252,4.41584 0.3252,-3.29473 0.32519,-6.19111 0.32521,2.29051 0.32523,0.97162 0.32521,1.9628 0.32519,5.52747 0.32518,-1.6161 0.32522,-3.88219 0.32516,-1.08011 0.32527,1.87987 0.3252,2.60831 0.32518,5.66054 0.3252,-0.12444 0.23635,-2.39573"
       clip-path="none"
       style="fill:none;stroke:#aa4400;stroke-width:1;stroke-linecap:square;stroke-linejoin:miter;stroke-miterlimit:4;stroke-dasharray:none"
       inkscape:connector-curvature="0" />
    <path
       transform="matrix(0.29486283,0,0,0.11622647,295.00555,-135.41239)"
       style="fill:none;stroke:#aa0000;stroke-width:5.40178728;stroke-linecap:square;stroke-linejoin:round;stroke-miterlimit:4;stroke-dasharray:none"
       clip-path="url(#p50431ccdcb28178602d99d9270004dde-70)"
       d="m 72,199.44014 0.744,-9.88505 0.744,-8.16304 1.488,-9.36337 1.488,1.87949 0.744,4.51209 1.488,14.91057 2.976,33.84172 0.744,4.07908 0.744,1.42438 2.232,-4.60906 1.488,-0.0347 1.488,4.87221 1.488,5.9514 0.744,1.30441 0.744,-1.102 1.488,-8.48149 1.488,-6.66913 1.488,1.49385 0.744,2.11321 1.488,-1.52428 2.976,-17.3357 0.744,1.00237 2.232,10.64968 1.488,-4.58749 1.488,-22.11071 2.232,-44.27705 0.744,-8.23399 0.744,-2.67097 0.744,1.68533 1.488,9.82042 1.488,15.06494 2.232,34.10097 1.488,19.55812 0.744,4.74052 1.488,-1.04466 2.232,-8.95528 0.744,-1.66071 1.488,1.57539 1.488,9.97787 2.976,25.15023 1.488,9.85045 1.488,16.87157 1.488,20.10934 0.744,4.06258 0.744,-3.2619 0.744,-10.54148 4.464,-88.92547 2.232,-7.57641 0.744,-6.78791 2.976,-42.28856 0.744,-3.70829 0.744,1.93631 1.488,16.51775 1.488,17.60432 0.744,4.60487 0.744,1.46299 1.488,-2.48511 2.232,-8.84485 1.488,3.58933 1.488,17.8884 2.232,44.1192 2.976,69.61286 1.488,16.66005 0.744,1.77475 0.744,-1.73947 0.744,-4.38392 2.232,-21.99984 1.488,-11.63998 2.232,-13.45344 2.232,-20.81468 3.72,-43.83979 0.744,-3.86105 1.488,3.98198 1.488,16.21543 2.232,25.67229 0.744,2.70765 0.744,-1.27609 1.488,-10.12523 1.488,-11.31521 0.744,-3.97331 0.744,-2.00057 1.488,4.1382 1.488,14.931 1.488,16.65152 0.744,3.72521 0.744,-1.59709 0.744,-6.92539 2.976,-47.18876 2.232,-32.9563 1.488,-10.49265 2.976,-7.78144 1.488,1.06199 1.488,10.11014 1.488,8.87559 0.744,1.15151 1.488,0.55343 0.744,1.482 2.232,7.63589 1.488,0.81241 1.488,3.5433 2.976,16.08709 1.488,0.11738 1.488,-4.45597 2.232,-8.75192 0.744,-1.69833 1.488,2.54425 0.744,6.25848 2.976,38.89904 0.744,1.44606 0.744,-3.91149 2.976,-30.90086 1.488,5.82012 2.232,20.64498 0.744,2.85098 0.744,1.52132 1.488,1.61142 0.744,1.6138 0.744,3.74111 2.232,18.7331 0.744,1.82262 0.744,-3.23004 1.488,-19.64156 1.488,-20.95621 0.744,-4.88296 1.488,5.26725 1.488,23.35075 3.72,78.19372 0.744,3.03636 0.744,-3.52594 1.488,-21.42585 5.208,-103.81978 0.744,-6.14833 1.488,3.44713 2.976,30.03524 0.744,3.76533 0.744,1.39758 1.488,-3.36539 0.744,-2.51763 0.744,-1.11263 1.488,3.98873 1.488,10.28867 2.232,16.39558 1.488,-2.65607 0.744,-8.48228 1.488,-29.39002 2.976,-64.39347 0.744,-10.22254 0.744,-5.58917 1.488,6.47734 1.488,29.06624 4.464,126.63805 1.488,19.96354 1.488,8.29161 2.976,7.72263 1.488,-2.20208 0.744,-6.24159 1.488,-23.49537 3.72,-83.10322 0.744,-6.23683 1.488,1.76487 2.232,8.76564 1.488,3.74779 1.488,-0.024 1.488,-3.13723 2.976,-2.18358 1.488,3.46051 2.232,12.14935 0.744,1.04711 0.744,-2.33626 0.744,-5.76889 1.488,-18.68947 2.976,-39.63108 0.744,-4.39655 1.488,5.15274 0.744,11.4399 1.488,40.38546 2.976,93.76422 0.744,13.18135 0.744,6.18746 1.488,-6.65651 1.488,-23.09303 2.232,-39.41937 0.744,-7.5832 0.744,-2.19151 0.744,3.37797 0.744,8.38648 1.488,28.30844 2.232,45.00689 0.744,6.46383 1.488,-7.85238 1.488,-29.28104 2.976,-66.0734 0.744,-9.19186 0.744,-3.97138 0.744,1.29966 0.744,5.71682 4.464,49.47802 3.72,29.2188 1.488,0.59528 0.744,-1.27976 0.744,-2.64938 0.744,-4.89588 0.744,-8.13954 1.488,-26.92991 2.976,-63.3791 1.488,-17.44058 1.488,-6.986 0.744,-2.45078 0.744,-3.75576 4.464,-32.09936 0.744,-1.62975 1.488,-1.46885 1.488,0.82394 0.744,3.15329 1.488,13.24986 3.72,41.72316 0.744,2.85103 1.488,-3.27108 0.744,-2.97088 1.488,2.46798 1.488,15.32221 2.232,27.13907 0.744,5.77709 0.744,1.85304 0.744,-2.94587 0.744,-7.76788 3.72,-58.37263 0.744,-1.83181 0.744,3.37185 2.976,23.05137 0.744,1.45875 0.744,-1.59848 0.744,-5.26625 1.488,-22.90961 3.72,-81.468298 0.744,-7.197684 1.488,6.014559 1.488,30.348323 2.976,69.63821 1.488,15.91528 2.232,10.94183 2.232,18.80032 1.488,15.65283 3.72,44.88057 0.744,1.58038 0.744,-2.28932 1.488,-12.70893 4.464,-54.32107 0.744,-2.68949 0.744,1.09828 0.744,4.68426 1.488,16.41455 2.232,25.92632 0.744,5.98774 0.744,3.10537 1.488,-6.11821 1.488,-19.78223 2.232,-32.4824 1.488,-12.87383 0.744,-3.53748 0.744,-1.52085 1.488,2.65488 0.744,4.96905 1.488,19.96561 3.72,64.27351 0.744,6.03854 0.744,2.11457 0.744,-2.40737 0.744,-6.5507 1.488,-21.65179 3.72,-62.98963 1.488,-13.82365 1.488,-8.53521 0.744,-2.44259 1.488,2.90333 1.488,15.66129 3.72,49.72553 1.488,13.21295 1.488,7.17468 1.488,-1.56624 0.744,-3.64211 1.488,-12.60594 2.232,-30.19264 2.232,-29.12852 2.976,-26.43417 2.232,-16.76631 1.488,-6.35095 1.488,2.60633 1.488,9.02587 0.744,5.30678 v 0"
       id="path4671"
       inkscape:connector-curvature="0" />
    <path
       transform="matrix(0.29487598,0,0,0.10129949,294.82733,-102.0039)"
       style="fill:none;stroke:#aa0000;stroke-width:5.78597641;stroke-linecap:square;stroke-linejoin:round;stroke-miterlimit:4;stroke-dasharray:none"
       clip-path="url(#p50431ccdcb28178602d99d9270004dde-1)"
       d="m 72,195.32244 2.232,30.33622 5.208,82.6578 0.744,4.19735 1.488,-3.89026 1.488,-19.94804 2.976,-51.5742 1.488,-15.29076 0.744,-3.34251 1.488,3.00996 2.232,13.1893 1.488,-3.78718 1.488,-19.12934 2.232,-34.06841 0.744,-5.24672 1.488,8.23212 1.488,31.43735 2.232,57.23294 1.488,22.07497 0.744,4.115 1.488,-6.28659 1.488,-21.65355 2.232,-36.59323 0.744,-5.1408 1.488,6.30869 1.488,20.61486 2.232,33.49649 2.232,21.86923 1.488,11.09439 0.744,3.17876 1.488,-4.64149 0.744,-9.80413 1.488,-35.10837 5.208,-162.82504 0.744,-4.37728 0.744,2.85359 1.488,18.23989 2.232,26.41871 1.488,8.29516 1.488,-4.16282 1.488,-19.19336 2.976,-49.954665 1.488,-14.127951 0.744,-1.481978 0.744,3.186202 0.744,8.152323 1.488,30.070909 2.976,74.34825 1.488,22.21049 0.744,3.87797 1.488,-4.18932 1.488,-6.76813 0.744,1.1176 0.744,5.54956 2.976,38.1284 0.744,2.07031 0.744,-3.13193 0.744,-7.82764 3.72,-55.0724 0.744,-3.64768 1.488,5.30612 2.976,30.19848 3.72,40.74891 1.488,-6.08927 1.488,-29.84397 5.208,-135.548516 0.744,-4.439519 0.744,2.328802 1.488,18.799123 2.232,31.04385 0.744,3.24254 0.744,-1.35421 1.488,-7.8348 1.488,3.07954 0.744,8.87001 2.976,54.21293 0.744,4.45466 0.744,-3.83675 0.744,-12.36007 1.488,-44.02004 2.232,-67.458014 0.744,-9.807903 0.744,-1.235956 0.744,6.843274 1.488,33.963199 3.72,110.95534 1.488,30.78323 1.488,15.82699 0.744,1.05037 0.744,-2.92336 1.488,-15.42023 2.232,-29.10193 0.744,-4.13997 1.488,3.25476 1.488,14.02677 1.488,13.7527 0.744,3.5736 1.488,-0.0598 1.488,-6.03731 2.232,-11.29102 0.744,-1.71544 1.488,0.83206 1.488,2.74048 1.488,-2.35746 0.744,-4.38614 1.488,-15.79294 2.976,-37.65538 1.488,-9.18414 1.488,-0.397 1.488,0.5789 0.744,-2.07495 2.976,-12.27931 0.744,-1.07803 1.488,3.7658 0.744,7.07097 1.488,22.86684 3.72,62.29229 1.488,10.53592 1.488,-1.53356 0.744,-5.65925 1.488,-20.3937 2.976,-52.3496 0.744,-5.71969 0.744,-1.77482 1.488,2.13314 0.744,1.74903 0.744,2.64263 0.744,4.53901 1.488,16.37177 2.232,37.7415 2.976,57.56895 1.488,16.24963 0.744,4.00541 1.488,-1.54407 0.744,-6.06174 1.488,-22.64763 4.464,-86.76047 0.744,-5.34539 1.488,5.4348 1.488,24.24557 1.488,27.75599 0.744,9.07281 0.744,4.13125 1.488,-5.73562 2.232,-22.1705 0.744,-2.10783 0.744,1.90328 1.488,11.73428 2.232,23.86467 0.744,3.59592 1.488,-4.51945 1.488,-10.58806 1.488,-5.51951 0.744,-1.17679 1.488,0.73573 0.744,2.96847 1.488,11.1741 2.232,25.63503 2.232,28.94129 0.744,5.08943 1.488,-6.45851 1.488,-28.88379 4.464,-110.71625 1.488,-28.21869 1.488,-15.73324 0.744,-1.09211 0.744,4.4715 0.744,10.35307 1.488,34.85257 2.232,59.39486 1.488,25.73433 2.232,24.50853 1.488,11.94282 0.744,4.03252 0.744,1.53676 0.744,-2.10704 0.744,-6.61355 1.488,-25.57901 2.976,-58.38824 0.744,-7.79984 0.744,-3.28947 0.744,1.43053 0.744,6.04059 1.488,23.71545 2.232,42.4171 1.488,15.27687 0.744,1.92636 0.744,-1.1466 2.232,-8.88218 1.488,1.15132 1.488,7.77147 2.232,12.03415 0.744,1.33413 1.488,-2.49175 0.744,-3.71797 0.744,-6.00499 1.488,-21.23441 4.464,-87.4472 1.488,-11.20767 1.488,2.21804 0.744,6.85048 1.488,22.61505 3.72,65.10288 1.488,12.3153 1.488,-1.41618 0.744,-4.74623 1.488,-16.15999 2.976,-38.69355 1.488,-10.16289 0.744,-2.09524 1.488,0.22406 1.488,1.2405 1.488,-1.56728 1.488,2.37064 0.744,5.74578 1.488,21.80702 2.232,36.04628 0.744,7.41719 0.744,3.73415 1.488,-3.52244 1.488,-16.44012 2.976,-39.75004 1.488,-10.86014 2.232,-9.68575 2.976,-8.07549 0.744,-1.90015 1.488,-0.90024 1.488,-2.67097 1.488,-10.76671 1.488,-10.69323 0.744,-1.50011 0.744,2.45728 0.744,6.87963 1.488,25.32681 2.976,58.56911 0.744,5.29605 0.744,-1.31911 0.744,-8.03292 1.488,-32.69795 2.976,-79.02586 1.488,-20.46693 0.744,-1.09612 0.744,5.72965 0.744,12.31994 1.488,40.84565 4.464,142.92149 1.488,22.81465 0.744,5.75133 0.744,2.9772 1.488,-3.98092 0.744,-9.9613 1.488,-37.68173 2.976,-91.91816 1.488,-24.91094 0.744,-5.37188 0.744,-1.86031 1.488,2.85403 1.488,7.85444 1.488,11.91121 1.488,18.20202 2.232,30.27667 1.488,14.22323 1.488,8.26892 1.488,2.78152 1.488,0.84953 1.488,-3.72943 0.744,-5.55318 1.488,-20.61354 1.488,-32.21626 4.464,-113.843703 1.488,-20.141638 0.744,-2.120428 0.744,4.682202 0.744,11.23528 1.488,36.107587 2.232,57.75799 1.488,25.25843 2.232,24.35664 1.488,10.24365 0.744,1.52362 1.488,-1.30286 0.744,-2.08998 0.744,-3.79067 1.488,-15.16222 2.232,-30.2585 0.744,-6.04314 0.744,-2.48551 0.744,1.29102 0.744,5.11122 1.488,20.22618 3.72,64.92923 0.744,7.75707 0.744,3.7673 1.488,-4.86038 1.488,-17.54351 1.488,-30.56327 v 0"
       id="path4811"
       inkscape:connector-curvature="0" />
    <path
       transform="matrix(0.29485775,0,0,0.09953701,294.82862,-74.52355)"
       style="fill:none;stroke:#aa0000;stroke-width:5.83715773;stroke-linecap:square;stroke-linejoin:round;stroke-miterlimit:4;stroke-dasharray:none"
       clip-path="url(#p50431ccdcb28178602d99d9270004dde-4)"
       d="m 72,163.1451 0.744,-2.27452 1.488,3.69053 1.488,13.83684 1.488,22.76845 2.232,51.95737 1.488,34.5966 0.744,12.10493 0.744,6.4761 1.488,-4.01561 1.488,-17.60438 2.232,-39.1788 1.488,-24.68425 0.744,-7.10813 0.744,-1.58165 0.744,4.08897 3.72,41.4428 0.744,3.48985 0.744,1.4769 1.488,-4.884 1.488,-18.30227 2.976,-48.67307 0.744,-6.86559 0.744,-3.377 1.488,0.86929 1.488,4.36029 0.744,1.13793 1.488,-2.49878 0.744,-2.45691 0.744,-1.28143 0.744,1.2585 0.744,4.6037 1.488,19.62599 1.488,24.18953 0.744,7.91383 0.744,3.48058 1.488,-3.71225 2.232,-11.62052 0.744,-1.80422 1.488,1.17035 1.488,7.85088 2.232,11.21149 2.976,13.6754 1.488,-1.78885 1.488,-8.80563 1.488,-14.75642 2.976,-33.43367 4.464,-31.10787 0.744,-1.14349 0.744,3.96554 0.744,10.21771 1.488,36.2853 1.488,36.87935 0.744,11.54626 0.744,5.98157 1.488,-1.44933 1.488,-5.71535 1.488,0.71294 1.488,-1.19286 1.488,-8.29143 1.488,-7.20299 1.488,0.83889 0.744,3.72078 1.488,13.41834 1.488,13.31066 0.744,2.88616 1.488,-1.52697 0.744,-3.54994 0.744,-5.99536 1.488,-20.37847 2.232,-38.29982 0.744,-7.92207 0.744,-2.75328 0.744,1.8795 2.232,12.81364 0.744,1.03227 0.744,-1.72154 2.232,-12.82547 1.488,2.50925 2.976,22.54865 0.744,-1.25574 0.744,-5.65 2.976,-34.85934 1.488,4.88766 0.744,12.56426 1.488,42.25131 2.976,97.04178 0.744,12.48095 0.744,3.2372 0.744,-6.05124 1.488,-32.37885 1.488,-37.54203 1.488,-20.92636 0.744,-3.7474 0.744,-1.00758 1.488,1.46415 1.488,0.0151 0.744,-2.34547 0.744,-4.56184 1.488,-15.18759 1.488,-16.71724 0.744,-5.34978 0.744,-1.5619 0.744,2.84896 0.744,7.14781 1.488,23.91764 2.232,37.60059 0.744,3.53793 0.744,-4.05031 0.744,-11.05249 1.488,-37.68191 3.72,-119.49675 1.488,-26.478681 0.744,-6.897754 0.744,-3.11891 0.744,1.250277 0.744,6.99151 0.744,13.792158 1.488,47.30283 4.464,177.32434 1.488,33.14416 1.488,17.02368 0.744,2.96724 1.488,-5.51284 1.488,-21.4442 2.232,-41.10146 1.488,-16.05151 0.744,-3.94976 0.744,-1.39129 1.488,2.2463 1.488,-0.3758 0.744,-5.36849 1.488,-23.64804 2.232,-41.03902 1.488,-15.6666 1.488,-8.38273 1.488,5.61339 0.744,10.64396 1.488,34.68651 2.976,76.53698 0.744,9.90657 0.744,4.79924 1.488,-2.56891 0.744,-6.54618 1.488,-23.81025 2.232,-40.27649 0.744,-7.50548 0.744,-3.17536 1.488,2.37205 1.488,6.46522 2.232,10.65168 1.488,-3.60726 1.488,-14.64286 2.232,-24.27417 1.488,-9.22035 0.744,-2.77995 1.488,-0.14636 1.488,3.06904 0.744,-1.23541 0.744,-5.03374 1.488,-19.42625 1.488,-18.74288 0.744,-4.28695 1.488,6.28938 1.488,24.29036 3.72,74.23768 0.744,6.9658 0.744,2.43073 0.744,-1.42117 1.488,-8.96017 2.232,-14.48642 0.744,-1.16321 1.488,0.42834 0.744,-1.29693 0.744,-3.04055 3.72,-23.37479 0.744,-1.02771 0.744,1.55461 0.744,4.20746 1.488,15.48447 4.464,65.01346 0.744,3.1016 0.744,-2.14014 0.744,-8.58213 1.488,-36.71644 2.232,-69.06021 1.488,-29.90818 1.488,-16.47476 0.744,-2.88334 0.744,1.26266 0.744,5.61147 1.488,22.21736 3.72,68.78244 0.744,7.10172 0.744,3.52161 1.488,-2.8778 1.488,-8.405 0.744,-1.84613 0.744,1.64525 1.488,12.44408 1.488,13.28303 0.744,3.36649 1.488,-2.70589 1.488,-13.49759 3.72,-46.57487 4.464,-67.92097 0.744,-1.43634 0.744,3.41625 2.232,22.47254 2.232,22.12998 1.488,7.75163 1.488,4.7448 2.232,4.33509 1.488,5.89054 1.488,5.5381 1.488,-1.04093 0.744,-4.01282 1.488,-16.26713 1.488,-26.75233 2.976,-66.60945 0.744,-9.18019 0.744,-2.57555 0.744,4.67276 1.488,26.63495 2.976,60.57553 2.232,33.23359 1.488,11.55037 1.488,-4.40908 3.72,-38.79848 0.744,-2.37546 1.488,-0.91866 0.744,-2.30007 0.744,-5.56669 2.976,-33.59139 0.744,-2.90548 0.744,1.16037 1.488,10.94604 1.488,9.56728 0.744,1.78836 1.488,1.80099 0.744,2.10887 0.744,3.74749 1.488,13.03245 1.488,19.44637 2.232,33.25631 0.744,6.38156 0.744,1.3175 0.744,-4.56847 1.488,-24.44709 2.232,-40.3528 0.744,-7.59347 0.744,-3.82612 1.488,3.76905 2.232,14.45134 1.488,-0.90748 2.976,-13.16671 1.488,1.82187 2.232,10.12258 1.488,-3.02868 1.488,-14.67378 4.464,-58.70091 0.744,-4.0362 1.488,3.01815 1.488,14.64084 2.232,29.36065 1.488,10.75984 1.488,5.26404 0.744,1.07752 1.488,-2.26771 1.488,-4.07076 1.488,0.0972 0.744,3.57554 1.488,16.756 2.232,31.16986 1.488,9.29941 1.488,3.14758 1.488,2.73359 0.744,2.65369 0.744,4.75089 1.488,17.85895 2.232,34.39264 0.744,6.45355 0.744,2.43797 0.744,-1.47078 0.744,-5.10291 1.488,-18.98022 3.72,-58.41148 1.488,-10.50604 0.744,-1.42735 2.976,0.61828 0.744,1.35708 2.232,8.73947 2.232,9.13244 0.744,1.28294 1.488,-2.9375 2.976,-12.40827 1.488,2.80629 1.488,9.75622 3.72,32.55742 1.488,-0.96532 1.488,-9.5954 3.72,-29.85605 2.976,-22.32126 0.744,-2.60173 1.488,4.89718 1.488,19.46461 1.488,22.06141 0.744,6.24971 v 0"
       id="path4951"
       inkscape:connector-curvature="0" />
    <text
       xml:space="preserve"
       style="font-style:normal;font-weight:normal;font-size:14.66670036px;line-height:0%;font-family:'Bitstream Vera Sans';fill:#aa0000;fill-opacity:1;stroke:none"
       x="187.07605"
       y="-45.020061"
       id="text12295-7"><tspan
         style="font-size:14.66670036px;line-height:1.25"
         sodipodi:role="line"
         id="tspan12297-8"
         x="187.07605"
         y="-45.020061">AnalogSignal</tspan></text>
    <path
       sodipodi:nodetypes="cccccc"
       id="path3376-8-4-4"
       d="m 279.9382,-50.41412 c 2.25775,-0.12975 7.14425,0.109248 7.14425,-2.356112 -0.0616,-3.18772 -0.27684,-26.097233 -0.27922,-33.804098 l -0.298,-15.83482 c 0.002,-3.67252 -1.03087,-8.97084 8.89419,-9.18469 l 18.26818,0.0456"
       style="fill:none;stroke:#aa0000;stroke-width:1px;stroke-linecap:butt;stroke-linejoin:miter;stroke-opacity:1;marker-end:url(#Arrow1Lend-1Cb)"
       inkscape:connector-curvature="0" />
    <path
       sodipodi:nodetypes="cccccc"
       id="path3376-8-4-4-7"
       d="m 284.01311,-50.403359 c 2.34216,-0.129669 9.33168,-2.015209 9.33168,-4.479021 -0.0639,-3.185714 -0.35306,-13.156858 -0.21508,-15.289015 l -0.0593,-4.777778 c 0.34508,-2.074743 2.39506,-4.067729 5.1528,-4.171414 l 16.42636,-9.5e-5"
       style="fill:none;stroke:#aa0000;stroke-width:1.01820028px;stroke-linecap:butt;stroke-linejoin:miter;stroke-opacity:1;marker-end:url(#Arrow1Lend-1v)"
       inkscape:connector-curvature="0" />
    <path
       sodipodi:nodetypes="cc"
       id="path3376-8-4-4-3"
       d="m 281.44468,-50.400623 32.71986,-0.513821"
       style="fill:none;stroke:#aa0000;stroke-width:1px;stroke-linecap:butt;stroke-linejoin:miter;stroke-opacity:1;marker-end:url(#Arrow1Lend-1n)"
       inkscape:connector-curvature="0" />
  </g>
</svg>
